<?xml version="1.0" standalone="no"?>
<!DOCTYPE svg PUBLIC "-//W3C//DTD SVG 20010904//EN"
 "http://www.w3.org/TR/2001/REC-SVG-20010904/DTD/svg10.dtd">
<svg version="1.0" xmlns="http://www.w3.org/2000/svg"
 width="1225.000000pt" height="1225.000000pt" viewBox="0 0 1225.000000 1225.000000"
 preserveAspectRatio="xMidYMid meet">
<metadata>
Created by potrace 1.11, written by Peter Selinger 2001-2013
</metadata>
<g transform="translate(0.000000,1225.000000) scale(0.100000,-0.100000)"
fill="#000000" stroke="none">
<path d="M7360 11585 c0 -12 -16 -15 -88 -15 -76 0 -91 -3 -107 -20 -16 -18
-31 -20 -162 -20 -120 0 -143 -2 -143 -15 0 -10 -11 -15 -35 -15 -28 0 -35 -4
-35 -20 0 -19 -7 -20 -183 -20 -171 0 -185 -1 -202 -20 -18 -20 -31 -20 -552
-20 -467 0 -533 -2 -533 -15 0 -9 -9 -15 -24 -15 -13 0 -29 7 -36 15 -10 12
-49 15 -231 15 -188 0 -219 -2 -219 -15 0 -11 -13 -15 -53 -15 -47 0 -56 -4
-86 -35 -18 -19 -42 -35 -55 -35 -12 0 -29 -9 -39 -20 -11 -13 -29 -20 -52
-20 -29 0 -35 -4 -35 -21 0 -24 -52 -49 -105 -49 -28 0 -35 -4 -35 -20 0 -13
-7 -20 -20 -20 -13 0 -25 -12 -34 -34 -11 -26 -21 -35 -43 -38 -20 -2 -32 -12
-43 -35 -8 -18 -21 -33 -28 -33 -7 0 -22 -9 -34 -20 -12 -11 -29 -20 -39 -20
-9 0 -22 -7 -29 -15 -8 -10 -31 -15 -71 -15 -52 0 -59 -2 -59 -20 0 -11 -7
-20 -15 -20 -8 0 -15 -9 -15 -20 0 -19 -7 -20 -166 -20 -134 0 -168 -3 -180
-15 -13 -12 -47 -15 -178 -15 -150 0 -164 -2 -181 -20 -12 -13 -31 -20 -55
-20 -21 0 -43 -7 -50 -15 -8 -9 -30 -15 -56 -15 -33 0 -47 -5 -56 -20 -9 -14
-24 -20 -50 -20 -27 0 -38 -4 -38 -15 0 -10 -11 -15 -35 -15 -28 0 -35 -4 -35
-20 0 -13 -7 -20 -20 -20 -13 0 -20 -7 -20 -20 0 -11 -7 -20 -15 -20 -8 0 -15
-7 -15 -15 0 -12 -13 -15 -58 -15 -45 0 -61 -4 -75 -20 -9 -11 -25 -20 -36
-20 -10 0 -24 -7 -31 -15 -7 -8 -29 -15 -50 -15 -22 0 -48 -8 -63 -20 -14 -11
-39 -20 -56 -20 -24 0 -31 -4 -31 -20 0 -16 -7 -20 -35 -20 -24 0 -35 -5 -35
-15 0 -11 -11 -15 -38 -15 -31 0 -44 -7 -69 -35 -17 -19 -40 -35 -51 -35 -10
0 -27 -9 -38 -21 -28 -31 -88 -59 -127 -59 -18 0 -42 -7 -53 -15 -10 -8 -35
-15 -55 -15 -23 0 -42 -7 -54 -20 -11 -12 -31 -20 -52 -20 -31 0 -33 -2 -33
-35 0 -34 -1 -35 -40 -35 -31 0 -40 -4 -40 -17 0 -10 -7 -27 -15 -37 -8 -11
-15 -27 -15 -36 0 -9 -9 -25 -20 -35 -19 -17 -20 -31 -20 -217 0 -187 -1 -198
-19 -198 -10 0 -24 -7 -31 -15 -7 -9 -29 -15 -51 -15 -32 0 -39 -3 -39 -20 0
-13 -7 -20 -20 -20 -16 0 -20 -7 -20 -35 0 -24 -5 -35 -15 -35 -10 0 -15 -10
-15 -33 0 -35 -30 -77 -55 -77 -10 0 -15 -11 -15 -35 0 -28 -4 -35 -20 -35
-13 0 -20 -7 -20 -18 0 -11 -9 -27 -20 -37 -11 -10 -20 -26 -20 -37 0 -14 -8
-18 -35 -18 -33 0 -35 -2 -35 -34 0 -28 -4 -35 -22 -38 -14 -2 -29 -15 -38
-35 -8 -18 -23 -33 -32 -33 -11 0 -18 -8 -18 -20 0 -11 -7 -20 -15 -20 -8 0
-15 -8 -15 -18 0 -9 -9 -23 -20 -30 -11 -7 -20 -23 -20 -37 0 -16 -6 -25 -15
-25 -8 0 -15 -7 -15 -16 0 -20 -39 -53 -62 -54 -11 0 -18 -8 -18 -19 0 -10 -7
-24 -15 -31 -8 -7 -15 -23 -15 -36 0 -18 -6 -24 -21 -24 -26 0 -49 -23 -49
-48 0 -10 -9 -27 -20 -37 -11 -10 -20 -27 -20 -38 0 -23 -27 -46 -52 -47 -14
0 -18 -9 -18 -40 0 -33 -3 -40 -20 -40 -20 0 -20 -7 -20 -355 0 -309 -2 -355
-15 -355 -13 0 -15 -55 -15 -435 0 -380 2 -435 15 -435 10 0 15 -11 15 -35 0
-30 3 -35 23 -35 29 0 57 -29 57 -57 0 -11 7 -26 15 -33 8 -7 15 -21 15 -31 0
-16 8 -19 53 -19 48 0 57 -4 87 -35 31 -32 39 -35 90 -35 44 0 61 -4 75 -20
12 -13 31 -20 57 -20 31 0 38 -3 38 -20 0 -11 7 -20 15 -20 8 0 15 -8 15 -18
0 -11 9 -27 20 -37 11 -10 20 -24 20 -32 0 -7 7 -13 15 -13 12 0 15 -19 15
-110 0 -103 1 -110 20 -110 20 0 20 -7 20 -270 0 -263 0 -270 -20 -270 -11 0
-20 -7 -20 -15 0 -8 -7 -15 -16 -15 -24 0 -84 -65 -84 -90 0 -17 -6 -20 -40
-20 -32 0 -40 -4 -40 -19 0 -10 -7 -24 -15 -31 -8 -7 -15 -23 -15 -36 0 -17
-6 -24 -20 -24 -16 0 -20 -7 -20 -32 0 -34 -32 -109 -56 -128 -12 -11 -14 -77
-14 -426 0 -401 -1 -415 -20 -434 -15 -15 -20 -33 -20 -74 0 -35 -5 -58 -15
-66 -8 -7 -15 -23 -15 -36 0 -17 -6 -24 -20 -24 -20 0 -50 -54 -50 -91 0 -12
-7 -19 -20 -19 -11 0 -20 -7 -20 -15 0 -8 -7 -15 -15 -15 -8 0 -15 -8 -15 -18
0 -11 -9 -27 -20 -37 -13 -12 -20 -31 -20 -57 0 -31 -3 -38 -20 -38 -17 0 -20
-7 -20 -50 0 -38 -4 -50 -15 -50 -8 0 -15 -9 -15 -20 0 -16 -7 -20 -35 -20
-28 0 -35 -4 -35 -20 0 -13 -7 -20 -20 -20 -11 0 -20 -7 -20 -15 0 -8 -9 -15
-20 -15 -13 0 -20 -7 -20 -18 0 -26 -101 -132 -126 -132 -24 0 -54 -29 -54
-53 0 -9 -7 -17 -15 -17 -8 0 -15 -7 -15 -15 0 -21 -35 -88 -54 -104 -9 -8
-16 -24 -16 -36 0 -15 -14 -35 -40 -55 -22 -17 -40 -40 -40 -51 0 -10 -7 -19
-15 -19 -13 0 -15 -23 -15 -143 0 -129 -2 -145 -20 -165 -17 -18 -20 -35 -20
-127 l0 -105 79 0 c58 0 82 4 91 15 7 8 28 15 46 15 27 0 34 4 34 20 0 18 7
20 75 20 60 0 75 3 75 15 0 11 11 15 40 15 29 0 43 5 52 20 10 16 24 20 65 20
46 0 53 3 53 20 0 17 7 20 40 20 29 0 40 4 40 15 0 10 10 15 33 15 21 0 41 8
52 20 16 18 31 20 127 20 89 0 108 3 108 15 0 8 7 15 15 15 9 0 25 9 37 20 13
12 36 20 55 20 25 0 33 4 33 18 0 23 30 52 53 52 10 0 17 8 17 20 0 16 7 20
36 20 48 0 74 16 74 44 0 26 102 136 126 136 8 0 14 7 14 15 0 8 9 15 20 15
13 0 20 7 20 20 0 14 7 20 21 20 11 0 27 7 35 15 10 10 35 15 70 15 47 0 54 2
54 20 0 16 7 20 35 20 28 0 35 4 35 20 0 13 7 20 18 20 10 0 27 7 38 15 10 8
28 15 39 15 11 0 28 9 38 20 11 14 29 20 55 20 43 0 62 14 62 47 0 23 2 23
110 23 103 0 110 -1 110 -20 0 -11 7 -20 15 -20 10 0 15 -11 15 -35 0 -28 4
-35 20 -35 11 0 20 -7 20 -15 0 -8 14 -29 30 -47 17 -17 44 -55 61 -85 17 -29
34 -55 40 -58 5 -4 9 -14 9 -24 0 -24 31 -51 58 -51 15 0 22 -6 22 -20 0 -11
7 -20 15 -20 10 0 15 -11 15 -35 0 -33 2 -35 35 -35 28 0 35 -4 35 -20 0 -13
7 -20 19 -20 12 0 30 -18 50 -50 17 -27 42 -60 56 -72 14 -12 25 -31 25 -44 0
-28 15 -40 81 -63 70 -24 175 -77 287 -145 49 -29 115 -61 147 -71 115 -33
165 -56 165 -74 0 -10 9 -26 20 -36 11 -10 20 -26 20 -37 0 -10 7 -18 15 -18
12 0 15 -13 15 -55 0 -48 2 -55 20 -55 11 0 20 -7 20 -15 0 -8 7 -15 15 -15 8
0 25 -17 38 -38 19 -29 65 -62 208 -148 101 -61 218 -124 259 -139 85 -32 214
-94 274 -133 87 -56 158 -82 224 -82 29 0 53 -7 69 -20 14 -11 34 -20 43 -20
10 0 34 -7 53 -15 23 -9 69 -15 125 -15 81 0 93 -3 156 -35 l69 -35 793 0
c787 0 794 0 794 -20 0 -19 7 -20 110 -20 103 0 110 -1 110 -20 0 -18 7 -20
70 -20 56 0 70 -3 70 -15 0 -10 10 -15 33 -15 21 0 41 -8 52 -20 12 -13 31
-20 57 -20 27 0 38 -4 38 -15 0 -10 11 -15 35 -15 23 0 41 -7 52 -20 12 -13
30 -20 55 -20 26 0 44 -7 55 -20 10 -11 27 -20 39 -20 12 0 27 -7 34 -15 9
-11 33 -15 86 -15 65 0 83 -4 147 -37 39 -20 95 -47 122 -61 28 -13 67 -37 87
-53 20 -16 45 -29 56 -29 25 0 174 -77 185 -95 5 -9 23 -15 48 -15 48 0 97
-19 123 -49 15 -17 30 -21 77 -21 34 0 79 -8 107 -19 44 -18 128 -37 204 -46
15 -2 45 -13 67 -24 24 -13 59 -21 89 -21 26 0 74 -7 105 -15 32 -8 84 -15
115 -15 58 0 93 -15 139 -59 14 -13 35 -21 56 -21 19 0 40 -7 47 -15 10 -12
42 -15 164 -15 134 0 154 -2 181 -20 28 -18 47 -20 268 -20 230 0 237 1 237
20 0 18 7 20 60 20 45 0 62 4 66 15 5 11 22 15 65 15 46 0 65 5 81 20 16 14
36 20 70 20 35 0 55 6 70 20 14 13 36 20 59 20 20 0 42 7 49 15 10 12 37 15
121 15 102 0 109 1 109 20 0 18 7 20 76 20 54 0 80 4 90 15 9 8 33 15 55 15
32 0 39 3 39 20 0 17 7 20 50 20 43 0 50 3 50 20 0 13 7 20 20 20 11 0 20 7
20 15 0 8 7 15 15 15 8 0 15 9 15 20 0 14 7 20 23 20 27 0 57 28 57 53 0 9 7
17 15 17 8 0 15 7 15 15 0 8 9 15 20 15 13 0 20 7 20 20 0 13 7 20 20 20 11 0
25 9 32 20 7 11 23 20 35 20 14 0 23 6 23 15 0 8 7 15 15 15 12 0 15 13 15 55
0 43 4 59 20 72 15 13 20 30 20 70 0 40 4 53 15 53 13 0 15 23 15 145 0 138 1
145 20 145 20 0 20 7 20 608 0 596 0 609 20 627 19 17 20 31 20 290 0 230 2
274 15 285 13 11 15 61 15 340 0 314 1 328 20 345 19 17 20 31 20 345 0 279 2
329 15 340 12 10 15 37 15 124 0 94 3 116 20 141 12 18 20 47 20 71 0 28 6 47
20 59 17 16 20 31 20 107 0 72 3 88 15 88 13 0 15 24 15 160 0 153 1 160 20
160 17 0 20 7 20 39 0 22 6 44 15 51 11 9 15 33 15 91 0 72 2 79 20 79 19 0
20 7 20 125 0 104 2 125 15 125 10 0 15 10 15 33 0 21 8 41 20 52 19 17 20 31
20 197 0 171 1 178 20 178 19 0 20 7 20 183 0 165 -2 185 -20 212 -18 28 -20
47 -20 251 0 208 -1 222 -20 239 -17 16 -20 31 -20 107 0 72 -3 88 -15 88 -11
0 -15 11 -15 40 0 29 -5 43 -20 52 -14 9 -20 24 -20 50 0 27 -4 38 -15 38 -8
0 -15 9 -15 20 0 11 -9 35 -20 55 -11 20 -20 42 -20 50 0 8 -7 15 -15 15 -8 0
-15 9 -15 20 0 13 -7 20 -20 20 -13 0 -20 7 -20 18 0 11 -9 27 -20 37 -11 10
-20 26 -20 37 0 10 -7 18 -15 18 -11 0 -15 13 -15 53 0 48 -4 57 -35 87 -27
27 -35 42 -35 70 0 24 -7 43 -20 55 -13 12 -20 31 -20 55 0 24 -7 43 -20 55
-13 12 -20 31 -20 55 0 21 -7 43 -15 50 -8 7 -15 29 -15 50 0 22 -8 48 -20 63
-14 18 -20 40 -20 77 0 32 -6 57 -15 66 -8 9 -15 23 -15 33 0 10 -9 26 -20 36
-14 13 -20 31 -20 59 0 31 -9 55 -35 93 -19 29 -35 58 -35 66 0 8 -9 22 -20
32 -13 12 -20 31 -20 57 0 27 -4 38 -15 38 -8 0 -15 8 -15 18 0 9 -18 32 -40
51 -24 20 -40 43 -40 55 0 12 -16 37 -35 56 -19 19 -35 42 -35 53 0 24 -23 47
-49 47 -19 0 -21 6 -21 59 0 40 -5 63 -15 71 -10 8 -15 31 -15 66 0 47 -2 54
-20 54 -17 0 -20 7 -20 38 0 27 -7 45 -21 58 -26 22 -49 74 -49 106 0 13 -9
31 -20 41 -17 14 -20 29 -20 90 0 70 -1 74 -35 107 -31 30 -35 39 -35 87 0 46
-3 53 -20 53 -18 0 -20 7 -20 70 0 56 -3 70 -15 70 -11 0 -15 11 -15 38 0 39
-25 72 -55 72 -8 0 -15 8 -15 18 0 24 -103 122 -129 122 -15 0 -21 6 -21 23 0
33 -30 57 -72 57 -20 0 -52 7 -71 15 -30 12 -97 15 -380 15 -294 0 -346 -2
-357 -15 -8 -10 -31 -15 -70 -15 -44 0 -61 -4 -75 -20 -16 -18 -31 -20 -122
-20 -84 0 -111 -4 -143 -20 -32 -16 -59 -20 -148 -20 l-108 0 -34 -35 c-27
-28 -42 -35 -72 -35 l-38 0 0 -70 0 -70 -72 82 c-40 46 -77 88 -83 94 -5 6
-35 40 -65 75 -115 132 -206 235 -242 274 -21 22 -38 50 -38 63 0 19 -5 22
-38 22 -26 0 -41 6 -50 20 -7 11 -23 20 -36 20 -13 0 -29 7 -36 15 -9 11 -35
15 -105 15 -79 0 -94 3 -110 20 -17 19 -31 20 -200 20 -150 0 -185 3 -195 15
-10 12 -45 15 -196 15 -157 0 -184 -2 -184 -15z"/>
</g>
</svg>
